<svg width="778" height="208" viewBox="0 0 778 208" fill="none" xmlns="http://www.w3.org/2000/svg">
<rect width="778" height="208" fill="white"/>
<path d="M113.5 132.95C113.133 132.35 112.8 131.733 112.5 131.1C112.233 130.467 111.967 129.817 111.7 129.15L86.05 62C86.05 61.8333 86.0167 61.6833 85.95 61.55C85.9167 61.4167 85.9 61.2833 85.9 61.15C85.9 60.2167 86.5167 59.75 87.75 59.75H103.85C105.117 59.75 105.983 60.3833 106.45 61.65L121.7 107.15C123.067 103.35 124.367 99.5667 125.6 95.8C126.867 92 128.1 88.2 129.3 84.4C130.533 80.6 131.767 76.8167 133 73.05C134.267 69.25 135.583 65.45 136.95 61.65C137.417 60.3833 138.333 59.75 139.7 59.75H155.45C156.217 59.75 156.75 59.9 157.05 60.2C157.383 60.4667 157.55 60.8333 157.55 61.3C157.55 61.5667 157.533 61.75 157.5 61.85V62L131.7 129.15C131.533 129.617 131.333 130.133 131.1 130.7C130.867 131.267 130.6 131.8 130.3 132.3C130 132.767 129.65 133.167 129.25 133.5C128.85 133.833 128.4 134 127.9 134H115.55C114.517 134 113.833 133.65 113.5 132.95ZM164.485 74.4C164.485 73.3333 164.785 72.4167 165.385 71.65C165.985 70.8833 166.918 70.5 168.185 70.5H179.635C180.035 70.5 180.468 70.6 180.935 70.8C181.402 70.9667 181.835 71.2333 182.235 71.6C182.635 71.9333 182.968 72.3333 183.235 72.8C183.535 73.2667 183.685 73.8 183.685 74.4V130.15C183.685 131.417 183.335 132.383 182.635 133.05C181.935 133.683 180.935 134 179.635 134H168.185C165.718 134 164.485 132.717 164.485 130.15V74.4ZM164.485 49.1C164.485 47.7 164.785 46.7167 165.385 46.15C165.985 45.55 166.918 45.25 168.185 45.25H179.785C180.952 45.25 181.885 45.55 182.585 46.15C183.318 46.7167 183.685 47.7 183.685 49.1V58.85C183.685 59.25 183.585 59.6833 183.385 60.15C183.218 60.6167 182.968 61.0667 182.635 61.5C182.302 61.9333 181.885 62.3 181.385 62.6C180.918 62.8667 180.385 63 179.785 63H168.185C165.718 63 164.485 61.6167 164.485 58.85V49.1ZM195.088 74.15C195.088 72.9833 195.438 72.05 196.138 71.35C196.871 70.6167 197.854 70.25 199.088 70.25H241.188C242.254 70.25 243.188 70.5833 243.988 71.25C244.821 71.8833 245.238 72.85 245.238 74.15V82.85C245.238 83.15 245.204 83.5 245.138 83.9C245.104 84.3 244.938 84.7 244.638 85.1L217.088 117.8H241.788C242.988 117.8 243.938 118.133 244.638 118.8C245.371 119.433 245.738 120.45 245.738 121.85V129.7C245.738 130.2 245.638 130.717 245.438 131.25C245.271 131.75 245.004 132.217 244.638 132.65C244.304 133.05 243.888 133.383 243.388 133.65C242.921 133.883 242.388 134 241.788 134H197.688C197.154 134 196.638 133.883 196.138 133.65C195.671 133.383 195.238 133.05 194.838 132.65C194.471 132.25 194.171 131.8 193.938 131.3C193.738 130.767 193.638 130.233 193.638 129.7V122.8C193.638 122.333 193.671 121.883 193.738 121.45C193.838 121.017 194.088 120.567 194.488 120.1C196.721 117.633 199.054 114.967 201.488 112.1C203.954 109.2 206.438 106.267 208.938 103.3C211.438 100.333 213.921 97.4 216.388 94.5C218.854 91.6 221.204 88.9 223.438 86.4H199.088C197.854 86.4 196.871 86.0667 196.138 85.4C195.438 84.7333 195.088 83.6833 195.088 82.25V74.15ZM255.696 74.4C255.696 73.3333 255.996 72.4167 256.596 71.65C257.196 70.8833 258.129 70.5 259.396 70.5H270.846C271.246 70.5 271.679 70.6 272.146 70.8C272.613 70.9667 273.046 71.2333 273.446 71.6C273.846 71.9333 274.179 72.3333 274.446 72.8C274.746 73.2667 274.896 73.8 274.896 74.4V130.15C274.896 131.417 274.546 132.383 273.846 133.05C273.146 133.683 272.146 134 270.846 134H259.396C256.929 134 255.696 132.717 255.696 130.15V74.4ZM255.696 49.1C255.696 47.7 255.996 46.7167 256.596 46.15C257.196 45.55 258.129 45.25 259.396 45.25H270.996C272.163 45.25 273.096 45.55 273.796 46.15C274.529 46.7167 274.896 47.7 274.896 49.1V58.85C274.896 59.25 274.796 59.6833 274.596 60.15C274.429 60.6167 274.179 61.0667 273.846 61.5C273.513 61.9333 273.096 62.3 272.596 62.6C272.129 62.8667 271.596 63 270.996 63H259.396C256.929 63 255.696 61.6167 255.696 58.85V49.1ZM284.948 102.3C284.948 99.2333 285.332 96.2833 286.098 93.45C286.898 90.6167 287.998 88 289.398 85.6C290.832 83.1667 292.532 80.9667 294.498 79C296.498 77 298.715 75.3 301.148 73.9C303.582 72.5 306.198 71.4167 308.998 70.65C311.832 69.8833 314.782 69.5 317.848 69.5C322.382 69.5 326.632 70.35 330.598 72.05C334.598 73.7167 338.065 76.0333 340.998 79C343.965 81.9333 346.298 85.4 347.998 89.4C349.732 93.3667 350.598 97.6667 350.598 102.3C350.598 105.367 350.198 108.317 349.398 111.15C348.632 113.95 347.532 116.567 346.098 119C344.698 121.433 342.998 123.65 340.998 125.65C339.032 127.617 336.832 129.317 334.398 130.75C331.965 132.15 329.348 133.233 326.548 134C323.782 134.767 320.882 135.15 317.848 135.15C314.782 135.15 311.832 134.767 308.998 134C306.198 133.233 303.582 132.15 301.148 130.75C298.715 129.317 296.498 127.617 294.498 125.65C292.532 123.65 290.832 121.433 289.398 119C287.998 116.567 286.898 113.95 286.098 111.15C285.332 108.317 284.948 105.367 284.948 102.3ZM303.198 102.3C303.198 104.5 303.532 106.567 304.198 108.5C304.898 110.4 305.865 112.05 307.098 113.45C308.365 114.85 309.882 115.967 311.648 116.8C313.448 117.6 315.465 118 317.698 118C319.865 118 321.815 117.6 323.548 116.8C325.315 115.967 326.798 114.85 327.998 113.45C329.232 112.05 330.165 110.4 330.798 108.5C331.465 106.567 331.798 104.5 331.798 102.3C331.798 100.167 331.465 98.1333 330.798 96.2C330.165 94.2667 329.232 92.5667 327.998 91.1C326.798 89.6333 325.315 88.4833 323.548 87.65C321.815 86.7833 319.865 86.35 317.698 86.35C315.465 86.35 313.448 86.7833 311.648 87.65C309.882 88.4833 308.365 89.6333 307.098 91.1C305.865 92.5667 304.898 94.2667 304.198 96.2C303.532 98.1333 303.198 100.167 303.198 102.3ZM361.831 71.35C362.265 70.9833 362.715 70.75 363.181 70.65C363.681 70.55 364.148 70.5 364.581 70.5H372.131C372.731 70.5 373.248 70.6167 373.681 70.85C374.115 71.05 374.481 71.3333 374.781 71.7C375.081 72.0667 375.315 72.4833 375.481 72.95C375.681 73.4167 375.865 73.9 376.031 74.4L377.081 78.8C377.581 77.7667 378.381 76.7 379.481 75.6C380.615 74.5 381.998 73.5 383.631 72.6C385.298 71.7 387.215 70.9667 389.381 70.4C391.548 69.8 393.965 69.5 396.631 69.5C400.431 69.5 403.815 70.2333 406.781 71.7C409.781 73.1667 412.315 75.1667 414.381 77.7C416.481 80.2333 418.065 83.2 419.131 86.6C420.231 89.9667 420.781 93.5667 420.781 97.4V130.15C420.781 131.417 420.498 132.383 419.931 133.05C419.398 133.683 418.531 134 417.331 134H405.781C404.348 134 403.365 133.767 402.831 133.3C402.298 132.8 402.031 131.85 402.031 130.45V97.9C402.031 96.4667 401.698 95.1167 401.031 93.85C400.398 92.55 399.548 91.4167 398.481 90.45C397.415 89.45 396.198 88.6667 394.831 88.1C393.498 87.5333 392.131 87.25 390.731 87.25C389.531 87.25 388.298 87.5167 387.031 88.05C385.798 88.5833 384.648 89.3333 383.581 90.3C382.548 91.2333 381.665 92.35 380.931 93.65C380.231 94.9167 379.831 96.3 379.731 97.8V130.3C379.731 130.867 379.615 131.433 379.381 132C379.181 132.567 378.865 133 378.431 133.3C377.998 133.567 377.581 133.75 377.181 133.85C376.815 133.95 376.381 134 375.881 134H364.581C363.148 134 362.115 133.65 361.481 132.95C360.848 132.25 360.531 131.317 360.531 130.15V74.2C360.531 73.5667 360.665 72.9833 360.931 72.45C361.231 71.9167 361.631 71.5 362.131 71.2L361.831 71.35ZM498.147 130.3C498.147 130.867 498.047 131.417 497.847 131.95C497.647 132.45 497.314 132.85 496.847 133.15C496.48 133.517 496.047 133.75 495.547 133.85C495.047 133.95 494.614 134 494.247 134H484.397C483.697 134 483.13 133.917 482.697 133.75C482.264 133.55 481.914 133.283 481.647 132.95C481.38 132.617 481.147 132.217 480.947 131.75C480.78 131.25 480.597 130.717 480.397 130.15L479.747 127.9C478.847 128.8 477.814 129.683 476.647 130.55C475.514 131.417 474.247 132.2 472.847 132.9C471.48 133.567 469.997 134.1 468.397 134.5C466.83 134.933 465.197 135.15 463.497 135.15C460.464 135.15 457.547 134.767 454.747 134C451.98 133.233 449.38 132.15 446.947 130.75C444.547 129.317 442.364 127.617 440.397 125.65C438.43 123.65 436.73 121.433 435.297 119C433.897 116.567 432.814 113.95 432.047 111.15C431.28 108.317 430.897 105.367 430.897 102.3C430.897 97.6667 431.747 93.3667 433.447 89.4C435.147 85.4 437.464 81.9333 440.397 79C443.33 76.0333 446.78 73.7167 450.747 72.05C454.714 70.35 458.964 69.5 463.497 69.5C465.564 69.5 467.48 69.7333 469.247 70.2C471.047 70.6667 472.68 71.3 474.147 72.1C475.647 72.9 476.997 73.8667 478.197 75C479.397 76.1 480.447 77.3 481.347 78.6L482.797 74.05C483.13 73.2167 483.397 72.55 483.597 72.05C483.83 71.5167 484.064 71.1333 484.297 70.9C484.564 70.6333 484.88 70.4667 485.247 70.4C485.614 70.3 486.13 70.25 486.797 70.25H494.247C494.614 70.25 495.047 70.3 495.547 70.4C496.047 70.5 496.48 70.7333 496.847 71.1C497.314 71.4667 497.647 71.8833 497.847 72.35C498.047 72.8167 498.147 73.35 498.147 73.95V130.3ZM448.897 102.3C448.897 104.5 449.23 106.567 449.897 108.5C450.597 110.4 451.58 112.05 452.847 113.45C454.114 114.85 455.63 115.967 457.397 116.8C459.197 117.6 461.18 118 463.347 118C465.58 118 467.647 117.6 469.547 116.8C471.48 115.967 473.147 114.85 474.547 113.45C475.98 112.05 477.097 110.4 477.897 108.5C478.697 106.567 479.097 104.5 479.097 102.3C479.097 100.167 478.697 98.1333 477.897 96.2C477.097 94.2667 475.98 92.5667 474.547 91.1C473.147 89.6333 471.48 88.4833 469.547 87.65C467.647 86.7833 465.58 86.35 463.347 86.35C461.18 86.35 459.197 86.7833 457.397 87.65C455.63 88.4833 454.114 89.6333 452.847 91.1C451.58 92.5667 450.597 94.2667 449.897 96.2C449.23 98.1333 448.897 100.167 448.897 102.3ZM510.141 74.2C510.141 73.5667 510.257 73.0167 510.491 72.55C510.724 72.0833 511.024 71.7 511.391 71.4C511.791 71.1 512.224 70.8833 512.691 70.75C513.191 70.5833 513.674 70.5 514.141 70.5H521.691C522.524 70.5 523.191 70.75 523.691 71.25C524.191 71.75 524.607 72.3833 524.941 73.15C525.307 73.9167 525.624 74.7667 525.891 75.7C526.157 76.6333 526.474 77.5333 526.841 78.4C527.841 77.3 528.824 76.2167 529.791 75.15C530.791 74.0833 531.857 73.1333 532.991 72.3C534.124 71.4667 535.357 70.8 536.691 70.3C538.057 69.7667 539.607 69.5 541.341 69.5C543.141 69.5 544.741 69.6333 546.141 69.9C547.574 70.1667 548.924 70.5667 550.191 71.1C551.457 71.6 552.707 72.25 553.941 73.05C555.207 73.85 556.574 74.7833 558.041 75.85C559.474 76.6833 560.191 77.6667 560.191 78.8C560.191 79.5333 559.907 80.3833 559.341 81.35L554.791 89.1C553.891 90.4 552.774 91.05 551.441 91.05C550.774 91.05 550.024 90.8667 549.191 90.5C547.757 89.1 546.291 88.0667 544.791 87.4C543.324 86.7 541.641 86.35 539.741 86.35C538.441 86.35 537.291 86.5333 536.291 86.9C535.324 87.2667 534.441 87.7833 533.641 88.45C532.841 89.1167 532.091 89.9167 531.391 90.85C530.691 91.7833 529.991 92.8167 529.291 93.95V130.15C529.291 131.417 528.974 132.383 528.341 133.05C527.741 133.683 526.724 134 525.291 134H514.041C511.441 134 510.141 132.717 510.141 130.15V74.2ZM563.81 75.3C563.277 73.9667 563.26 72.8333 563.76 71.9C564.293 70.9333 565.443 70.45 567.21 70.45H579.56C580.393 70.45 581.077 70.7167 581.61 71.25C582.143 71.75 582.543 72.3833 582.81 73.15L596.96 113.4L610.81 73.15C611.177 72.0833 611.643 71.3667 612.21 71C612.777 70.6333 613.56 70.45 614.56 70.45H627.41C628.343 70.45 629.077 70.5833 629.61 70.85C630.143 71.0833 630.51 71.4167 630.71 71.85C630.943 72.25 631.027 72.7167 630.96 73.25C630.893 73.75 630.76 74.25 630.56 74.75C629.293 77.8833 627.91 81.3167 626.41 85.05C624.91 88.75 623.343 92.6167 621.71 96.65C620.11 100.65 618.477 104.733 616.81 108.9C615.143 113.033 613.51 117.1 611.91 121.1C610.343 125.1 608.827 128.95 607.36 132.65C605.893 136.317 604.543 139.683 603.31 142.75C602.11 145.85 601.06 148.567 600.16 150.9C599.26 153.233 598.577 155.033 598.11 156.3L598.26 156.05C598.027 156.95 597.61 157.667 597.01 158.2C596.41 158.767 595.677 159.05 594.81 159.05H583.26C581.76 159.05 580.727 158.75 580.16 158.15C579.627 157.583 579.36 156.733 579.36 155.6C579.36 155.167 579.41 154.833 579.51 154.6C579.643 154.367 579.743 154.217 579.81 154.15L587.66 133.75L563.81 75.3ZM639.456 119.6C639.456 118.933 639.64 118.4 640.006 118C640.373 117.6 640.923 117.4 641.656 117.4H654.856C655.423 117.4 655.94 117.6 656.406 118C656.906 118.4 657.156 118.933 657.156 119.6V131.7C657.156 132.3 656.956 132.833 656.556 133.3C656.19 133.767 655.623 134 654.856 134H641.656C640.19 134 639.456 133.233 639.456 131.7V119.6Z" fill="black"/>
</svg>
