<svg width="35" height="29" viewBox="0 0 35 29" fill="none" xmlns="http://www.w3.org/2000/svg">
<path d="M11.0689 28.5899C10.9218 28.3556 10.7881 28.1147 10.6678 27.8673C10.5609 27.62 10.4539 27.3661 10.347 27.1057L0.0601568 0.878787C0.0601568 0.813692 0.0467886 0.755105 0.0200523 0.703028C0.00668406 0.650952 0 0.598878 0 0.546802C0 0.182268 0.247311 0 0.741934 0H7.19877C7.70676 0 8.05433 0.247363 8.24149 0.742088L14.3574 18.5131C14.9055 17.029 15.4269 15.5513 15.9215 14.0801C16.4295 12.596 16.9241 11.1118 17.4054 9.62761C17.9 8.14343 18.3946 6.66577 18.8892 5.19461C19.3972 3.71044 19.9253 2.22626 20.4734 0.742088C20.6605 0.247363 21.0282 0 21.5763 0H27.8927C28.2002 0 28.4141 0.0585863 28.5344 0.175757C28.6681 0.27991 28.7349 0.423119 28.7349 0.605386C28.7349 0.709539 28.7282 0.781144 28.7149 0.820202V0.878787L18.3679 27.1057C18.301 27.288 18.2208 27.4898 18.1273 27.7111C18.0337 27.9324 17.9267 28.1407 17.8064 28.336C17.6861 28.5183 17.5457 28.6745 17.3853 28.8047C17.2249 28.9349 17.0444 29 16.8439 29H11.891C11.4766 29 11.2025 28.8633 11.0689 28.5899Z" fill="white"/>
<path d="M27.9015 23.3758C27.9015 23.1154 27.975 22.9071 28.1221 22.7508C28.2691 22.5946 28.4897 22.5165 28.7838 22.5165H34.0776C34.3049 22.5165 34.5121 22.5946 34.6992 22.7508C34.8997 22.9071 35 23.1154 35 23.3758V28.1017C35 28.336 34.9198 28.5443 34.7594 28.7266C34.6123 28.9089 34.3851 29 34.0776 29H28.7838C28.1956 29 27.9015 28.7006 27.9015 28.1017V23.3758Z" fill="white"/>
</svg>
