<svg width="32" height="27" viewBox="0 0 32 27" fill="none" xmlns="http://www.w3.org/2000/svg">
<path d="M10.26 26.622C10.128 26.406 10.008 26.184 9.9 25.956C9.804 25.728 9.708 25.494 9.612 25.254L0.378 1.08C0.378 1.02 0.366 0.965999 0.342 0.917998C0.33 0.869998 0.324 0.821999 0.324 0.774C0.324 0.438 0.546 0.27 0.99 0.27H6.786C7.242 0.27 7.554 0.498 7.722 0.954L13.212 17.334C13.704 15.966 14.172 14.604 14.616 13.248C15.072 11.88 15.516 10.512 15.948 9.144C16.392 7.776 16.836 6.414 17.28 5.058C17.736 3.69 18.21 2.322 18.702 0.954C18.87 0.498 19.2 0.27 19.692 0.27H25.362C25.638 0.27 25.83 0.323999 25.938 0.431999C26.058 0.527999 26.118 0.659999 26.118 0.827998C26.118 0.923998 26.112 0.989998 26.1 1.026V1.08L16.812 25.254C16.752 25.422 16.68 25.608 16.596 25.812C16.512 26.016 16.416 26.208 16.308 26.388C16.2 26.556 16.074 26.7 15.93 26.82C15.786 26.94 15.624 27 15.444 27H10.998C10.626 27 10.38 26.874 10.26 26.622ZM25.3699 21.816C25.3699 21.576 25.4359 21.384 25.5679 21.24C25.6999 21.096 25.8979 21.024 26.1619 21.024H30.9139C31.1179 21.024 31.3039 21.096 31.4719 21.24C31.6519 21.384 31.7419 21.576 31.7419 21.816V26.172C31.7419 26.388 31.6699 26.58 31.5259 26.748C31.3939 26.916 31.1899 27 30.9139 27H26.1619C25.6339 27 25.3699 26.724 25.3699 26.172V21.816Z" fill="black"/>
</svg>
