<svg width="115" height="24" viewBox="0 0 115 24" fill="none" xmlns="http://www.w3.org/2000/svg">
<path d="M5.7 18.29C5.62667 18.17 5.56 18.0467 5.5 17.92C5.44667 17.7933 5.39333 17.6633 5.34 17.53L0.21 4.1C0.21 4.06667 0.203333 4.03667 0.19 4.01C0.183333 3.98333 0.18 3.95667 0.18 3.93C0.18 3.74333 0.303333 3.65 0.55 3.65H3.77C4.02333 3.65 4.19667 3.77667 4.29 4.03L7.34 13.13C7.61333 12.37 7.87333 11.6133 8.12 10.86C8.37333 10.1 8.62 9.34 8.86 8.58C9.10667 7.82 9.35333 7.06333 9.6 6.31C9.85333 5.55 10.1167 4.79 10.39 4.03C10.4833 3.77667 10.6667 3.65 10.94 3.65H14.09C14.2433 3.65 14.35 3.68 14.41 3.74C14.4767 3.79333 14.51 3.86667 14.51 3.96C14.51 4.01333 14.5067 4.05 14.5 4.07V4.1L9.34 17.53C9.30667 17.6233 9.26667 17.7267 9.22 17.84C9.17333 17.9533 9.12 18.06 9.06 18.16C9 18.2533 8.93 18.3333 8.85 18.4C8.77 18.4667 8.68 18.5 8.58 18.5H6.11C5.90333 18.5 5.76667 18.43 5.7 18.29ZM15.897 6.58C15.897 6.36667 15.957 6.18333 16.077 6.03C16.197 5.87667 16.3837 5.8 16.637 5.8H18.927C19.007 5.8 19.0937 5.82 19.187 5.86C19.2804 5.89333 19.367 5.94667 19.447 6.02C19.527 6.08667 19.5937 6.16667 19.647 6.26C19.707 6.35333 19.737 6.46 19.737 6.58V17.73C19.737 17.9833 19.667 18.1767 19.527 18.31C19.387 18.4367 19.187 18.5 18.927 18.5H16.637C16.1437 18.5 15.897 18.2433 15.897 17.73V6.58ZM15.897 1.52C15.897 1.24 15.957 1.04333 16.077 0.929999C16.197 0.809999 16.3837 0.749999 16.637 0.749999H18.957C19.1904 0.749999 19.377 0.809999 19.517 0.929999C19.6637 1.04333 19.737 1.24 19.737 1.52V3.47C19.737 3.55 19.717 3.63667 19.677 3.73C19.6437 3.82333 19.5937 3.91333 19.527 4C19.4604 4.08667 19.377 4.16 19.277 4.22C19.1837 4.27333 19.077 4.3 18.957 4.3H16.637C16.1437 4.3 15.897 4.02333 15.897 3.47V1.52ZM22.0175 6.53C22.0175 6.29667 22.0875 6.11 22.2275 5.97C22.3742 5.82333 22.5708 5.75 22.8175 5.75H31.2375C31.4508 5.75 31.6375 5.81667 31.7975 5.95C31.9642 6.07667 32.0475 6.27 32.0475 6.53V8.27C32.0475 8.33 32.0408 8.4 32.0275 8.48C32.0208 8.56 31.9875 8.64 31.9275 8.72L26.4175 15.26H31.3575C31.5975 15.26 31.7875 15.3267 31.9275 15.46C32.0742 15.5867 32.1475 15.79 32.1475 16.07V17.64C32.1475 17.74 32.1275 17.8433 32.0875 17.95C32.0542 18.05 32.0008 18.1433 31.9275 18.23C31.8608 18.31 31.7775 18.3767 31.6775 18.43C31.5842 18.4767 31.4775 18.5 31.3575 18.5H22.5375C22.4308 18.5 22.3275 18.4767 22.2275 18.43C22.1342 18.3767 22.0475 18.31 21.9675 18.23C21.8942 18.15 21.8342 18.06 21.7875 17.96C21.7475 17.8533 21.7275 17.7467 21.7275 17.64V16.26C21.7275 16.1667 21.7342 16.0767 21.7475 15.99C21.7675 15.9033 21.8175 15.8133 21.8975 15.72C22.3442 15.2267 22.8108 14.6933 23.2975 14.12C23.7908 13.54 24.2875 12.9533 24.7875 12.36C25.2875 11.7667 25.7842 11.18 26.2775 10.6C26.7708 10.02 27.2408 9.48 27.6875 8.98H22.8175C22.5708 8.98 22.3742 8.91333 22.2275 8.78C22.0875 8.64667 22.0175 8.43667 22.0175 8.15V6.53ZM34.1392 6.58C34.1392 6.36667 34.1992 6.18333 34.3192 6.03C34.4392 5.87667 34.6259 5.8 34.8792 5.8H37.1692C37.2492 5.8 37.3359 5.82 37.4292 5.86C37.5226 5.89333 37.6092 5.94667 37.6892 6.02C37.7692 6.08667 37.8359 6.16667 37.8892 6.26C37.9492 6.35333 37.9792 6.46 37.9792 6.58V17.73C37.9792 17.9833 37.9092 18.1767 37.7692 18.31C37.6292 18.4367 37.4292 18.5 37.1692 18.5H34.8792C34.3859 18.5 34.1392 18.2433 34.1392 17.73V6.58ZM34.1392 1.52C34.1392 1.24 34.1992 1.04333 34.3192 0.929999C34.4392 0.809999 34.6259 0.749999 34.8792 0.749999H37.1992C37.4326 0.749999 37.6192 0.809999 37.7592 0.929999C37.9059 1.04333 37.9792 1.24 37.9792 1.52V3.47C37.9792 3.55 37.9592 3.63667 37.9192 3.73C37.8859 3.82333 37.8359 3.91333 37.7692 4C37.7026 4.08667 37.6192 4.16 37.5192 4.22C37.4259 4.27333 37.3192 4.3 37.1992 4.3H34.8792C34.3859 4.3 34.1392 4.02333 34.1392 3.47V1.52ZM39.9897 12.16C39.9897 11.5467 40.0664 10.9567 40.2197 10.39C40.3797 9.82333 40.5997 9.3 40.8797 8.82C41.1664 8.33333 41.5064 7.89333 41.8997 7.5C42.2997 7.1 42.743 6.76 43.2297 6.48C43.7164 6.2 44.2397 5.98333 44.7997 5.83C45.3664 5.67667 45.9564 5.6 46.5697 5.6C47.4764 5.6 48.3264 5.77 49.1197 6.11C49.9197 6.44333 50.613 6.90667 51.1997 7.5C51.793 8.08667 52.2597 8.78 52.5997 9.58C52.9464 10.3733 53.1197 11.2333 53.1197 12.16C53.1197 12.7733 53.0397 13.3633 52.8797 13.93C52.7264 14.49 52.5064 15.0133 52.2197 15.5C51.9397 15.9867 51.5997 16.43 51.1997 16.83C50.8064 17.2233 50.3664 17.5633 49.8797 17.85C49.393 18.13 48.8697 18.3467 48.3097 18.5C47.7564 18.6533 47.1764 18.73 46.5697 18.73C45.9564 18.73 45.3664 18.6533 44.7997 18.5C44.2397 18.3467 43.7164 18.13 43.2297 17.85C42.743 17.5633 42.2997 17.2233 41.8997 16.83C41.5064 16.43 41.1664 15.9867 40.8797 15.5C40.5997 15.0133 40.3797 14.49 40.2197 13.93C40.0664 13.3633 39.9897 12.7733 39.9897 12.16ZM43.6397 12.16C43.6397 12.6 43.7064 13.0133 43.8397 13.4C43.9797 13.78 44.173 14.11 44.4197 14.39C44.673 14.67 44.9764 14.8933 45.3297 15.06C45.6897 15.22 46.093 15.3 46.5397 15.3C46.973 15.3 47.363 15.22 47.7097 15.06C48.063 14.8933 48.3597 14.67 48.5997 14.39C48.8464 14.11 49.033 13.78 49.1597 13.4C49.293 13.0133 49.3597 12.6 49.3597 12.16C49.3597 11.7333 49.293 11.3267 49.1597 10.94C49.033 10.5533 48.8464 10.2133 48.5997 9.92C48.3597 9.62667 48.063 9.39667 47.7097 9.23C47.363 9.05667 46.973 8.97 46.5397 8.97C46.093 8.97 45.6897 9.05667 45.3297 9.23C44.9764 9.39667 44.673 9.62667 44.4197 9.92C44.173 10.2133 43.9797 10.5533 43.8397 10.94C43.7064 11.3267 43.6397 11.7333 43.6397 12.16ZM55.3663 5.97C55.4529 5.89667 55.5429 5.85 55.6363 5.83C55.7363 5.81 55.8296 5.8 55.9163 5.8H57.4263C57.5463 5.8 57.6496 5.82333 57.7363 5.87C57.8229 5.91 57.8963 5.96667 57.9563 6.04C58.0163 6.11333 58.0629 6.19667 58.0963 6.29C58.1363 6.38333 58.1729 6.48 58.2063 6.58L58.4163 7.46C58.5163 7.25333 58.6763 7.04 58.8963 6.82C59.1229 6.6 59.3996 6.4 59.7263 6.22C60.0596 6.04 60.4429 5.89333 60.8763 5.78C61.3096 5.66 61.7929 5.6 62.3263 5.6C63.0863 5.6 63.7629 5.74667 64.3563 6.04C64.9563 6.33333 65.4629 6.73333 65.8763 7.24C66.2963 7.74667 66.6129 8.34 66.8263 9.02C67.0463 9.69333 67.1563 10.4133 67.1563 11.18V17.73C67.1563 17.9833 67.0996 18.1767 66.9863 18.31C66.8796 18.4367 66.7063 18.5 66.4663 18.5H64.1563C63.8696 18.5 63.6729 18.4533 63.5663 18.36C63.4596 18.26 63.4063 18.07 63.4063 17.79V11.28C63.4063 10.9933 63.3396 10.7233 63.2063 10.47C63.0796 10.21 62.9096 9.98333 62.6963 9.79C62.4829 9.59 62.2396 9.43333 61.9663 9.32C61.6996 9.20667 61.4263 9.15 61.1463 9.15C60.9063 9.15 60.6596 9.20333 60.4063 9.31C60.1596 9.41667 59.9296 9.56667 59.7163 9.76C59.5096 9.94667 59.3329 10.17 59.1862 10.43C59.0463 10.6833 58.9663 10.96 58.9463 11.26V17.76C58.9463 17.8733 58.9229 17.9867 58.8763 18.1C58.8363 18.2133 58.7729 18.3 58.6863 18.36C58.5996 18.4133 58.5163 18.45 58.4363 18.47C58.3629 18.49 58.2763 18.5 58.1763 18.5H55.9163C55.6296 18.5 55.4229 18.43 55.2963 18.29C55.1696 18.15 55.1063 17.9633 55.1063 17.73V6.54C55.1063 6.41333 55.1329 6.29667 55.1863 6.19C55.2463 6.08333 55.3263 6 55.4263 5.94L55.3663 5.97ZM82.6294 17.76C82.6294 17.8733 82.6094 17.9833 82.5694 18.09C82.5294 18.19 82.4627 18.27 82.3694 18.33C82.296 18.4033 82.2094 18.45 82.1094 18.47C82.0094 18.49 81.9227 18.5 81.8494 18.5H79.8794C79.7394 18.5 79.626 18.4833 79.5394 18.45C79.4527 18.41 79.3827 18.3567 79.3294 18.29C79.276 18.2233 79.2294 18.1433 79.1894 18.05C79.156 17.95 79.1194 17.8433 79.0794 17.73L78.9494 17.28C78.7694 17.46 78.5627 17.6367 78.3294 17.81C78.1027 17.9833 77.8494 18.14 77.5694 18.28C77.296 18.4133 76.9994 18.52 76.6794 18.6C76.366 18.6867 76.0394 18.73 75.6994 18.73C75.0927 18.73 74.5094 18.6533 73.9494 18.5C73.396 18.3467 72.876 18.13 72.3894 17.85C71.9094 17.5633 71.4727 17.2233 71.0794 16.83C70.686 16.43 70.346 15.9867 70.0594 15.5C69.7794 15.0133 69.5627 14.49 69.4094 13.93C69.256 13.3633 69.1794 12.7733 69.1794 12.16C69.1794 11.2333 69.3494 10.3733 69.6894 9.58C70.0294 8.78 70.4927 8.08667 71.0794 7.5C71.666 6.90667 72.356 6.44333 73.1494 6.11C73.9427 5.77 74.7927 5.6 75.6994 5.6C76.1127 5.6 76.496 5.64667 76.8494 5.74C77.2094 5.83333 77.536 5.96 77.8294 6.12C78.1294 6.28 78.3994 6.47333 78.6394 6.7C78.8794 6.92 79.0894 7.16 79.2694 7.42L79.5594 6.51C79.626 6.34333 79.6794 6.21 79.7194 6.11C79.766 6.00333 79.8127 5.92667 79.8594 5.88C79.9127 5.82667 79.976 5.79333 80.0494 5.78C80.1227 5.76 80.226 5.75 80.3594 5.75H81.8494C81.9227 5.75 82.0094 5.76 82.1094 5.78C82.2094 5.8 82.296 5.84667 82.3694 5.92C82.4627 5.99333 82.5294 6.07667 82.5694 6.17C82.6094 6.26333 82.6294 6.37 82.6294 6.49V17.76ZM72.7794 12.16C72.7794 12.6 72.846 13.0133 72.9794 13.4C73.1194 13.78 73.316 14.11 73.5694 14.39C73.8227 14.67 74.126 14.8933 74.4794 15.06C74.8394 15.22 75.236 15.3 75.6694 15.3C76.116 15.3 76.5294 15.22 76.9094 15.06C77.296 14.8933 77.6294 14.67 77.9094 14.39C78.196 14.11 78.4194 13.78 78.5794 13.4C78.7394 13.0133 78.8194 12.6 78.8194 12.16C78.8194 11.7333 78.7394 11.3267 78.5794 10.94C78.4194 10.5533 78.196 10.2133 77.9094 9.92C77.6294 9.62667 77.296 9.39667 76.9094 9.23C76.5294 9.05667 76.116 8.97 75.6694 8.97C75.236 8.97 74.8394 9.05667 74.4794 9.23C74.126 9.39667 73.8227 9.62667 73.5694 9.92C73.316 10.2133 73.1194 10.5533 72.9794 10.94C72.846 11.3267 72.7794 11.7333 72.7794 12.16ZM85.0281 6.54C85.0281 6.41333 85.0515 6.30333 85.0981 6.21C85.1448 6.11667 85.2048 6.04 85.2781 5.98C85.3581 5.92 85.4448 5.87667 85.5381 5.85C85.6381 5.81667 85.7348 5.8 85.8281 5.8H87.3381C87.5048 5.8 87.6381 5.85 87.7381 5.95C87.8381 6.05 87.9215 6.17667 87.9881 6.33C88.0615 6.48333 88.1248 6.65333 88.1781 6.84C88.2315 7.02667 88.2948 7.20667 88.3681 7.38C88.5681 7.16 88.7648 6.94333 88.9581 6.73C89.1581 6.51667 89.3715 6.32667 89.5981 6.16C89.8248 5.99333 90.0715 5.86 90.3381 5.76C90.6115 5.65333 90.9215 5.6 91.2681 5.6C91.6281 5.6 91.9481 5.62667 92.2281 5.68C92.5148 5.73333 92.7848 5.81333 93.0381 5.92C93.2915 6.02 93.5415 6.15 93.7881 6.31C94.0415 6.47 94.3148 6.65667 94.6081 6.87C94.8948 7.03667 95.0381 7.23333 95.0381 7.46C95.0381 7.60667 94.9815 7.77667 94.8681 7.97L93.9581 9.52C93.7781 9.78 93.5548 9.91 93.2881 9.91C93.1548 9.91 93.0048 9.87333 92.8381 9.8C92.5515 9.52 92.2581 9.31333 91.9581 9.18C91.6648 9.04 91.3281 8.97 90.9481 8.97C90.6881 8.97 90.4581 9.00667 90.2581 9.08C90.0648 9.15333 89.8881 9.25667 89.7281 9.39C89.5681 9.52333 89.4181 9.68333 89.2781 9.87C89.1381 10.0567 88.9981 10.2633 88.8581 10.49V17.73C88.8581 17.9833 88.7948 18.1767 88.6681 18.31C88.5481 18.4367 88.3448 18.5 88.0581 18.5H85.8081C85.2881 18.5 85.0281 18.2433 85.0281 17.73V6.54ZM95.762 6.76C95.6554 6.49333 95.652 6.26667 95.752 6.08C95.8587 5.88667 96.0887 5.79 96.442 5.79H98.912C99.0787 5.79 99.2154 5.84333 99.322 5.95C99.4287 6.05 99.5087 6.17667 99.562 6.33L102.392 14.38L105.162 6.33C105.235 6.11667 105.329 5.97333 105.442 5.9C105.555 5.82667 105.712 5.79 105.912 5.79H108.482C108.669 5.79 108.815 5.81667 108.922 5.87C109.029 5.91667 109.102 5.98333 109.142 6.07C109.189 6.15 109.205 6.24333 109.192 6.35C109.179 6.45 109.152 6.55 109.112 6.65C108.859 7.27667 108.582 7.96333 108.282 8.71C107.982 9.45 107.669 10.2233 107.342 11.03C107.022 11.83 106.695 12.6467 106.362 13.48C106.029 14.3067 105.702 15.12 105.382 15.92C105.069 16.72 104.765 17.49 104.472 18.23C104.179 18.9633 103.909 19.6367 103.662 20.25C103.422 20.87 103.212 21.4133 103.032 21.88C102.852 22.3467 102.715 22.7067 102.622 22.96L102.652 22.91C102.605 23.09 102.522 23.2333 102.402 23.34C102.282 23.4533 102.135 23.51 101.962 23.51H99.652C99.352 23.51 99.1454 23.45 99.032 23.33C98.9254 23.2167 98.872 23.0467 98.872 22.82C98.872 22.7333 98.882 22.6667 98.902 22.62C98.9287 22.5733 98.9487 22.5433 98.962 22.53L100.532 18.45L95.762 6.76ZM110.891 15.62C110.891 15.4867 110.928 15.38 111.001 15.3C111.075 15.22 111.185 15.18 111.331 15.18H113.971C114.085 15.18 114.188 15.22 114.281 15.3C114.381 15.38 114.431 15.4867 114.431 15.62V18.04C114.431 18.16 114.391 18.2667 114.311 18.36C114.238 18.4533 114.125 18.5 113.971 18.5H111.331C111.038 18.5 110.891 18.3467 110.891 18.04V15.62Z" fill="black"/>
</svg>
